<?xml version="1.0" encoding="UTF-8" standalone="no"?>
<!-- Created with Inkscape (http://www.inkscape.org/) -->

<svg
   width="50mm"
   height="50mm"
   viewBox="0 0 50 50"
   version="1.1"
   id="svg1"
   inkscape:version="1.3 (0e150ed, 2023-07-21)"
   sodipodi:docname="grass.svg"
   xmlns:inkscape="http://www.inkscape.org/namespaces/inkscape"
   xmlns:sodipodi="http://sodipodi.sourceforge.net/DTD/sodipodi-0.dtd"
   xmlns:xlink="http://www.w3.org/1999/xlink"
   xmlns="http://www.w3.org/2000/svg"
   xmlns:svg="http://www.w3.org/2000/svg">
  <sodipodi:namedview
     id="namedview1"
     pagecolor="#ffffff"
     bordercolor="#111111"
     borderopacity="1"
     inkscape:showpageshadow="0"
     inkscape:pageopacity="0"
     inkscape:pagecheckerboard="1"
     inkscape:deskcolor="#d1d1d1"
     inkscape:document-units="mm"
     inkscape:zoom="1.8167051"
     inkscape:cx="91.649437"
     inkscape:cy="95.77779"
     inkscape:window-width="1704"
     inkscape:window-height="953"
     inkscape:window-x="0"
     inkscape:window-y="40"
     inkscape:window-maximized="0"
     inkscape:current-layer="layer1" />
  <defs
     id="defs1">
    <linearGradient
       id="linearGradient14"
       inkscape:collect="always">
      <stop
         style="stop-color:#4b4b4b;stop-opacity:1;"
         offset="0"
         id="stop14" />
      <stop
         style="stop-color:#ffffff;stop-opacity:1;"
         offset="0.41207814"
         id="stop15" />
    </linearGradient>
    <linearGradient
       id="linearGradient10"
       inkscape:collect="always">
      <stop
         style="stop-color:#00b227;stop-opacity:1;"
         offset="0"
         id="stop10" />
      <stop
         style="stop-color:#00b227;stop-opacity:0;"
         offset="1"
         id="stop11" />
    </linearGradient>
    <linearGradient
       inkscape:collect="always"
       xlink:href="#linearGradient10"
       id="linearGradient11"
       x1="22.677187"
       y1="18.75257"
       x2="32.677095"
       y2="18.75257"
       gradientUnits="userSpaceOnUse" />
    <linearGradient
       inkscape:collect="always"
       xlink:href="#linearGradient14"
       id="linearGradient15"
       x1="27.651537"
       y1="43.82209"
       x2="27.410133"
       y2="13.537074"
       gradientUnits="userSpaceOnUse" />
    <linearGradient
       inkscape:collect="always"
       xlink:href="#linearGradient14"
       id="linearGradient16"
       gradientUnits="userSpaceOnUse"
       x1="27.651537"
       y1="43.82209"
       x2="27.410133"
       y2="13.537074" />
    <linearGradient
       inkscape:collect="always"
       xlink:href="#linearGradient14"
       id="linearGradient17"
       gradientUnits="userSpaceOnUse"
       x1="27.651537"
       y1="43.82209"
       x2="27.410133"
       y2="13.537074" />
    <linearGradient
       inkscape:collect="always"
       xlink:href="#linearGradient14"
       id="linearGradient21"
       gradientUnits="userSpaceOnUse"
       x1="27.651537"
       y1="43.82209"
       x2="27.410133"
       y2="13.537074" />
    <linearGradient
       inkscape:collect="always"
       xlink:href="#linearGradient14"
       id="linearGradient22"
       gradientUnits="userSpaceOnUse"
       x1="27.651537"
       y1="43.82209"
       x2="27.410133"
       y2="13.537074" />
    <linearGradient
       inkscape:collect="always"
       xlink:href="#linearGradient10"
       id="linearGradient23"
       gradientUnits="userSpaceOnUse"
       x1="22.677187"
       y1="18.75257"
       x2="32.677095"
       y2="18.75257" />
    <linearGradient
       inkscape:collect="always"
       xlink:href="#linearGradient14"
       id="linearGradient24"
       gradientUnits="userSpaceOnUse"
       x1="27.651537"
       y1="43.82209"
       x2="27.410133"
       y2="13.537074" />
    <linearGradient
       inkscape:collect="always"
       xlink:href="#linearGradient14"
       id="linearGradient25"
       gradientUnits="userSpaceOnUse"
       x1="27.651537"
       y1="43.82209"
       x2="27.410133"
       y2="13.537074" />
    <linearGradient
       inkscape:collect="always"
       xlink:href="#linearGradient14"
       id="linearGradient26"
       gradientUnits="userSpaceOnUse"
       x1="27.651537"
       y1="43.82209"
       x2="27.410133"
       y2="13.537074" />
    <linearGradient
       inkscape:collect="always"
       xlink:href="#linearGradient10"
       id="linearGradient27"
       gradientUnits="userSpaceOnUse"
       x1="22.677187"
       y1="18.75257"
       x2="32.677095"
       y2="18.75257" />
    <linearGradient
       inkscape:collect="always"
       xlink:href="#linearGradient14"
       id="linearGradient28"
       gradientUnits="userSpaceOnUse"
       x1="27.651537"
       y1="43.82209"
       x2="27.410133"
       y2="13.537074" />
    <linearGradient
       inkscape:collect="always"
       xlink:href="#linearGradient14"
       id="linearGradient29"
       gradientUnits="userSpaceOnUse"
       x1="27.651537"
       y1="43.82209"
       x2="27.410133"
       y2="13.537074" />
    <linearGradient
       inkscape:collect="always"
       xlink:href="#linearGradient14"
       id="linearGradient30"
       gradientUnits="userSpaceOnUse"
       x1="27.651537"
       y1="43.82209"
       x2="27.410133"
       y2="13.537074" />
    <linearGradient
       inkscape:collect="always"
       xlink:href="#linearGradient10"
       id="linearGradient31"
       gradientUnits="userSpaceOnUse"
       x1="22.677187"
       y1="18.75257"
       x2="32.677095"
       y2="18.75257" />
    <linearGradient
       inkscape:collect="always"
       xlink:href="#linearGradient14"
       id="linearGradient32"
       gradientUnits="userSpaceOnUse"
       x1="27.651537"
       y1="43.82209"
       x2="27.410133"
       y2="13.537074" />
    <linearGradient
       inkscape:collect="always"
       xlink:href="#linearGradient14"
       id="linearGradient33"
       gradientUnits="userSpaceOnUse"
       x1="27.651537"
       y1="43.82209"
       x2="27.410133"
       y2="13.537074" />
    <linearGradient
       inkscape:collect="always"
       xlink:href="#linearGradient14"
       id="linearGradient34"
       gradientUnits="userSpaceOnUse"
       x1="27.651537"
       y1="43.82209"
       x2="27.410133"
       y2="13.537074" />
    <linearGradient
       inkscape:collect="always"
       xlink:href="#linearGradient10"
       id="linearGradient35"
       gradientUnits="userSpaceOnUse"
       x1="22.677187"
       y1="18.75257"
       x2="32.677095"
       y2="18.75257" />
    <linearGradient
       inkscape:collect="always"
       xlink:href="#linearGradient14"
       id="linearGradient36"
       gradientUnits="userSpaceOnUse"
       x1="27.651537"
       y1="43.82209"
       x2="27.410133"
       y2="13.537074" />
  </defs>
  <g
     inkscape:label="Layer 1"
     inkscape:groupmode="layer"
     id="layer1">
    <g
       id="g13"
       style="fill:url(#linearGradient15)"
       transform="matrix(1,0,0,1.3333228,-2.6771864,-8.3366771)">
      <path
         d="m 32.677094,18.752828 a 4.9999995,4.9999995 0 0 1 -0.125057,1.112594 4.9999995,4.9999995 0 0 1 -0.370004,1.056783 4.9999995,4.9999995 0 0 1 -0.595829,0.947746 4.9999995,4.9999995 0 0 1 -0.791683,0.791683 4.9999995,4.9999995 0 0 1 -0.947746,0.595829 4.9999995,4.9999995 0 0 1 -1.056783,0.370003 4.9999995,4.9999995 0 0 1 -1.112593,0.125057 4.9999995,4.9999995 0 0 1 -1.112594,-0.125057 4.9999995,4.9999995 0 0 1 -1.056783,-0.370003 4.9999995,4.9999995 0 0 1 -0.948262,-0.595829 4.9999995,4.9999995 0 0 1 -0.791683,-0.791683 4.9999995,4.9999995 0 0 1 -0.59583,-0.947746 4.9999995,4.9999995 0 0 1 -0.369486,-1.056783 4.9999995,4.9999995 0 0 1 -0.125574,-1.112594 v 25.000025 h 9.999907 z"
         style="fill:url(#linearGradient16);fill-opacity:1;stroke:#00b227;stroke-width:0;stroke-linecap:round;stroke-linejoin:round;paint-order:stroke markers fill"
         id="path3" />
      <path
         d="m 27.677399,13.752617 a 4.9999995,4.9999995 0 0 0 -1.112594,0.125573 4.9999995,4.9999995 0 0 0 -1.056783,0.369487 4.9999995,4.9999995 0 0 0 -0.948262,0.595829 4.9999995,4.9999995 0 0 0 -0.791683,0.791683 4.9999995,4.9999995 0 0 0 -0.59583,0.948263 4.9999995,4.9999995 0 0 0 -0.369486,1.056783 4.9999995,4.9999995 0 0 0 -0.125574,1.112593 4.9999995,4.9999995 0 0 0 0.125574,1.112594 4.9999995,4.9999995 0 0 0 0.369486,1.056783 4.9999995,4.9999995 0 0 0 0.59583,0.947746 4.9999995,4.9999995 0 0 0 0.791683,0.791683 4.9999995,4.9999995 0 0 0 0.948262,0.595829 4.9999995,4.9999995 0 0 0 1.056783,0.370003 4.9999995,4.9999995 0 0 0 1.112594,0.125057 4.9999995,4.9999995 0 0 0 1.112593,-0.125057 4.9999995,4.9999995 0 0 0 1.056783,-0.370003 4.9999995,4.9999995 0 0 0 0.947746,-0.595829 4.9999995,4.9999995 0 0 0 0.791683,-0.791683 4.9999995,4.9999995 0 0 0 0.595829,-0.947746 4.9999995,4.9999995 0 0 0 0.370004,-1.056783 4.9999995,4.9999995 0 0 0 0.125057,-1.112594 4.9999995,4.9999995 0 0 0 -0.01395,-0.37362 4.9999995,4.9999995 0 0 0 -0.04186,-0.371554 4.9999995,4.9999995 0 0 0 -0.06925,-0.367419 4.9999995,4.9999995 0 0 0 -0.09715,-0.361219 4.9999995,4.9999995 0 0 0 -0.123507,-0.35295 4.9999995,4.9999995 0 0 0 -0.149345,-0.342614 4.9999995,4.9999995 0 0 0 -0.174666,-0.330729 4.9999995,4.9999995 0 0 0 -0.198954,-0.316777 4.9999995,4.9999995 0 0 0 -0.222209,-0.300757 4.9999995,4.9999995 0 0 0 -0.243913,-0.283187 4.9999995,4.9999995 0 0 0 -0.264066,-0.264583 4.9999995,4.9999995 0 0 0 -0.283704,-0.243913 4.9999995,4.9999995 0 0 0 -0.300757,-0.222208 4.9999995,4.9999995 0 0 0 -0.316776,-0.198955 4.9999995,4.9999995 0 0 0 -0.330213,-0.174666 4.9999995,4.9999995 0 0 0 -0.343131,-0.149345 4.9999995,4.9999995 0 0 0 -0.352433,-0.123507 4.9999995,4.9999995 0 0 0 -0.361219,-0.09663 4.9999995,4.9999995 0 0 0 -0.367419,-0.06976 4.9999995,4.9999995 0 0 0 -0.371554,-0.04186 4.9999995,4.9999995 0 0 0 -0.37362,-0.01395 z"
         style="fill:url(#linearGradient17);fill-opacity:1;stroke:url(#linearGradient11);stroke-width:0;stroke-linecap:round;stroke-linejoin:round;paint-order:stroke markers fill"
         id="path2" />
    </g>
    <g
       id="g18"
       style="fill:url(#linearGradient24)"
       transform="matrix(0.80000735,0,0,1.0666498,13.858084,3.330712)">
      <path
         d="m 32.677094,18.752828 a 4.9999995,4.9999995 0 0 1 -0.125057,1.112594 4.9999995,4.9999995 0 0 1 -0.370004,1.056783 4.9999995,4.9999995 0 0 1 -0.595829,0.947746 4.9999995,4.9999995 0 0 1 -0.791683,0.791683 4.9999995,4.9999995 0 0 1 -0.947746,0.595829 4.9999995,4.9999995 0 0 1 -1.056783,0.370003 4.9999995,4.9999995 0 0 1 -1.112593,0.125057 4.9999995,4.9999995 0 0 1 -1.112594,-0.125057 4.9999995,4.9999995 0 0 1 -1.056783,-0.370003 4.9999995,4.9999995 0 0 1 -0.948262,-0.595829 4.9999995,4.9999995 0 0 1 -0.791683,-0.791683 4.9999995,4.9999995 0 0 1 -0.59583,-0.947746 4.9999995,4.9999995 0 0 1 -0.369486,-1.056783 4.9999995,4.9999995 0 0 1 -0.125574,-1.112594 v 25.000025 h 9.999907 z"
         style="fill:url(#linearGradient21);fill-opacity:1;stroke:#00b227;stroke-width:0;stroke-linecap:round;stroke-linejoin:round;paint-order:stroke markers fill"
         id="path17" />
      <path
         d="m 27.677399,13.752617 a 4.9999995,4.9999995 0 0 0 -1.112594,0.125573 4.9999995,4.9999995 0 0 0 -1.056783,0.369487 4.9999995,4.9999995 0 0 0 -0.948262,0.595829 4.9999995,4.9999995 0 0 0 -0.791683,0.791683 4.9999995,4.9999995 0 0 0 -0.59583,0.948263 4.9999995,4.9999995 0 0 0 -0.369486,1.056783 4.9999995,4.9999995 0 0 0 -0.125574,1.112593 4.9999995,4.9999995 0 0 0 0.125574,1.112594 4.9999995,4.9999995 0 0 0 0.369486,1.056783 4.9999995,4.9999995 0 0 0 0.59583,0.947746 4.9999995,4.9999995 0 0 0 0.791683,0.791683 4.9999995,4.9999995 0 0 0 0.948262,0.595829 4.9999995,4.9999995 0 0 0 1.056783,0.370003 4.9999995,4.9999995 0 0 0 1.112594,0.125057 4.9999995,4.9999995 0 0 0 1.112593,-0.125057 4.9999995,4.9999995 0 0 0 1.056783,-0.370003 4.9999995,4.9999995 0 0 0 0.947746,-0.595829 4.9999995,4.9999995 0 0 0 0.791683,-0.791683 4.9999995,4.9999995 0 0 0 0.595829,-0.947746 4.9999995,4.9999995 0 0 0 0.370004,-1.056783 4.9999995,4.9999995 0 0 0 0.125057,-1.112594 4.9999995,4.9999995 0 0 0 -0.01395,-0.37362 4.9999995,4.9999995 0 0 0 -0.04186,-0.371554 4.9999995,4.9999995 0 0 0 -0.06925,-0.367419 4.9999995,4.9999995 0 0 0 -0.09715,-0.361219 4.9999995,4.9999995 0 0 0 -0.123507,-0.35295 4.9999995,4.9999995 0 0 0 -0.149345,-0.342614 4.9999995,4.9999995 0 0 0 -0.174666,-0.330729 4.9999995,4.9999995 0 0 0 -0.198954,-0.316777 4.9999995,4.9999995 0 0 0 -0.222209,-0.300757 4.9999995,4.9999995 0 0 0 -0.243913,-0.283187 4.9999995,4.9999995 0 0 0 -0.264066,-0.264583 4.9999995,4.9999995 0 0 0 -0.283704,-0.243913 4.9999995,4.9999995 0 0 0 -0.300757,-0.222208 4.9999995,4.9999995 0 0 0 -0.316776,-0.198955 4.9999995,4.9999995 0 0 0 -0.330213,-0.174666 4.9999995,4.9999995 0 0 0 -0.343131,-0.149345 4.9999995,4.9999995 0 0 0 -0.352433,-0.123507 4.9999995,4.9999995 0 0 0 -0.361219,-0.09663 4.9999995,4.9999995 0 0 0 -0.367419,-0.06976 4.9999995,4.9999995 0 0 0 -0.371554,-0.04186 4.9999995,4.9999995 0 0 0 -0.37362,-0.01395 z"
         style="fill:url(#linearGradient22);fill-opacity:1;stroke:url(#linearGradient23);stroke-width:0;stroke-linecap:round;stroke-linejoin:round;paint-order:stroke markers fill"
         id="path18" />
    </g>
    <g
       id="g25"
       style="fill:url(#linearGradient28)"
       transform="matrix(0.80000735,0,0,1.0666498,-8.1419157,3.330712)">
      <path
         d="m 32.677094,18.752828 a 4.9999995,4.9999995 0 0 1 -0.125057,1.112594 4.9999995,4.9999995 0 0 1 -0.370004,1.056783 4.9999995,4.9999995 0 0 1 -0.595829,0.947746 4.9999995,4.9999995 0 0 1 -0.791683,0.791683 4.9999995,4.9999995 0 0 1 -0.947746,0.595829 4.9999995,4.9999995 0 0 1 -1.056783,0.370003 4.9999995,4.9999995 0 0 1 -1.112593,0.125057 4.9999995,4.9999995 0 0 1 -1.112594,-0.125057 4.9999995,4.9999995 0 0 1 -1.056783,-0.370003 4.9999995,4.9999995 0 0 1 -0.948262,-0.595829 4.9999995,4.9999995 0 0 1 -0.791683,-0.791683 4.9999995,4.9999995 0 0 1 -0.59583,-0.947746 4.9999995,4.9999995 0 0 1 -0.369486,-1.056783 4.9999995,4.9999995 0 0 1 -0.125574,-1.112594 v 25.000025 h 9.999907 z"
         style="fill:url(#linearGradient25);fill-opacity:1;stroke:#00b227;stroke-width:0;stroke-linecap:round;stroke-linejoin:round;paint-order:stroke markers fill"
         id="path24" />
      <path
         d="m 27.677399,13.752617 a 4.9999995,4.9999995 0 0 0 -1.112594,0.125573 4.9999995,4.9999995 0 0 0 -1.056783,0.369487 4.9999995,4.9999995 0 0 0 -0.948262,0.595829 4.9999995,4.9999995 0 0 0 -0.791683,0.791683 4.9999995,4.9999995 0 0 0 -0.59583,0.948263 4.9999995,4.9999995 0 0 0 -0.369486,1.056783 4.9999995,4.9999995 0 0 0 -0.125574,1.112593 4.9999995,4.9999995 0 0 0 0.125574,1.112594 4.9999995,4.9999995 0 0 0 0.369486,1.056783 4.9999995,4.9999995 0 0 0 0.59583,0.947746 4.9999995,4.9999995 0 0 0 0.791683,0.791683 4.9999995,4.9999995 0 0 0 0.948262,0.595829 4.9999995,4.9999995 0 0 0 1.056783,0.370003 4.9999995,4.9999995 0 0 0 1.112594,0.125057 4.9999995,4.9999995 0 0 0 1.112593,-0.125057 4.9999995,4.9999995 0 0 0 1.056783,-0.370003 4.9999995,4.9999995 0 0 0 0.947746,-0.595829 4.9999995,4.9999995 0 0 0 0.791683,-0.791683 4.9999995,4.9999995 0 0 0 0.595829,-0.947746 4.9999995,4.9999995 0 0 0 0.370004,-1.056783 4.9999995,4.9999995 0 0 0 0.125057,-1.112594 4.9999995,4.9999995 0 0 0 -0.01395,-0.37362 4.9999995,4.9999995 0 0 0 -0.04186,-0.371554 4.9999995,4.9999995 0 0 0 -0.06925,-0.367419 4.9999995,4.9999995 0 0 0 -0.09715,-0.361219 4.9999995,4.9999995 0 0 0 -0.123507,-0.35295 4.9999995,4.9999995 0 0 0 -0.149345,-0.342614 4.9999995,4.9999995 0 0 0 -0.174666,-0.330729 4.9999995,4.9999995 0 0 0 -0.198954,-0.316777 4.9999995,4.9999995 0 0 0 -0.222209,-0.300757 4.9999995,4.9999995 0 0 0 -0.243913,-0.283187 4.9999995,4.9999995 0 0 0 -0.264066,-0.264583 4.9999995,4.9999995 0 0 0 -0.283704,-0.243913 4.9999995,4.9999995 0 0 0 -0.300757,-0.222208 4.9999995,4.9999995 0 0 0 -0.316776,-0.198955 4.9999995,4.9999995 0 0 0 -0.330213,-0.174666 4.9999995,4.9999995 0 0 0 -0.343131,-0.149345 4.9999995,4.9999995 0 0 0 -0.352433,-0.123507 4.9999995,4.9999995 0 0 0 -0.361219,-0.09663 4.9999995,4.9999995 0 0 0 -0.367419,-0.06976 4.9999995,4.9999995 0 0 0 -0.371554,-0.04186 4.9999995,4.9999995 0 0 0 -0.37362,-0.01395 z"
         style="fill:url(#linearGradient26);fill-opacity:1;stroke:url(#linearGradient27);stroke-width:0;stroke-linecap:round;stroke-linejoin:round;paint-order:stroke markers fill"
         id="path25" />
    </g>
    <g
       id="g29"
       style="fill:url(#linearGradient32)"
       transform="matrix(0.60000551,0,0,0.79998737,28.393563,14.997955)">
      <path
         d="m 32.677094,18.752828 a 4.9999995,4.9999995 0 0 1 -0.125057,1.112594 4.9999995,4.9999995 0 0 1 -0.370004,1.056783 4.9999995,4.9999995 0 0 1 -0.595829,0.947746 4.9999995,4.9999995 0 0 1 -0.791683,0.791683 4.9999995,4.9999995 0 0 1 -0.947746,0.595829 4.9999995,4.9999995 0 0 1 -1.056783,0.370003 4.9999995,4.9999995 0 0 1 -1.112593,0.125057 4.9999995,4.9999995 0 0 1 -1.112594,-0.125057 4.9999995,4.9999995 0 0 1 -1.056783,-0.370003 4.9999995,4.9999995 0 0 1 -0.948262,-0.595829 4.9999995,4.9999995 0 0 1 -0.791683,-0.791683 4.9999995,4.9999995 0 0 1 -0.59583,-0.947746 4.9999995,4.9999995 0 0 1 -0.369486,-1.056783 4.9999995,4.9999995 0 0 1 -0.125574,-1.112594 v 25.000025 h 9.999907 z"
         style="fill:url(#linearGradient29);fill-opacity:1;stroke:#00b227;stroke-width:0;stroke-linecap:round;stroke-linejoin:round;paint-order:stroke markers fill"
         id="path28" />
      <path
         d="m 27.677399,13.752617 a 4.9999995,4.9999995 0 0 0 -1.112594,0.125573 4.9999995,4.9999995 0 0 0 -1.056783,0.369487 4.9999995,4.9999995 0 0 0 -0.948262,0.595829 4.9999995,4.9999995 0 0 0 -0.791683,0.791683 4.9999995,4.9999995 0 0 0 -0.59583,0.948263 4.9999995,4.9999995 0 0 0 -0.369486,1.056783 4.9999995,4.9999995 0 0 0 -0.125574,1.112593 4.9999995,4.9999995 0 0 0 0.125574,1.112594 4.9999995,4.9999995 0 0 0 0.369486,1.056783 4.9999995,4.9999995 0 0 0 0.59583,0.947746 4.9999995,4.9999995 0 0 0 0.791683,0.791683 4.9999995,4.9999995 0 0 0 0.948262,0.595829 4.9999995,4.9999995 0 0 0 1.056783,0.370003 4.9999995,4.9999995 0 0 0 1.112594,0.125057 4.9999995,4.9999995 0 0 0 1.112593,-0.125057 4.9999995,4.9999995 0 0 0 1.056783,-0.370003 4.9999995,4.9999995 0 0 0 0.947746,-0.595829 4.9999995,4.9999995 0 0 0 0.791683,-0.791683 4.9999995,4.9999995 0 0 0 0.595829,-0.947746 4.9999995,4.9999995 0 0 0 0.370004,-1.056783 4.9999995,4.9999995 0 0 0 0.125057,-1.112594 4.9999995,4.9999995 0 0 0 -0.01395,-0.37362 4.9999995,4.9999995 0 0 0 -0.04186,-0.371554 4.9999995,4.9999995 0 0 0 -0.06925,-0.367419 4.9999995,4.9999995 0 0 0 -0.09715,-0.361219 4.9999995,4.9999995 0 0 0 -0.123507,-0.35295 4.9999995,4.9999995 0 0 0 -0.149345,-0.342614 4.9999995,4.9999995 0 0 0 -0.174666,-0.330729 4.9999995,4.9999995 0 0 0 -0.198954,-0.316777 4.9999995,4.9999995 0 0 0 -0.222209,-0.300757 4.9999995,4.9999995 0 0 0 -0.243913,-0.283187 4.9999995,4.9999995 0 0 0 -0.264066,-0.264583 4.9999995,4.9999995 0 0 0 -0.283704,-0.243913 4.9999995,4.9999995 0 0 0 -0.300757,-0.222208 4.9999995,4.9999995 0 0 0 -0.316776,-0.198955 4.9999995,4.9999995 0 0 0 -0.330213,-0.174666 4.9999995,4.9999995 0 0 0 -0.343131,-0.149345 4.9999995,4.9999995 0 0 0 -0.352433,-0.123507 4.9999995,4.9999995 0 0 0 -0.361219,-0.09663 4.9999995,4.9999995 0 0 0 -0.367419,-0.06976 4.9999995,4.9999995 0 0 0 -0.371554,-0.04186 4.9999995,4.9999995 0 0 0 -0.37362,-0.01395 z"
         style="fill:url(#linearGradient30);fill-opacity:1;stroke:url(#linearGradient31);stroke-width:0;stroke-linecap:round;stroke-linejoin:round;paint-order:stroke markers fill"
         id="path29" />
    </g>
    <g
       id="g33"
       style="fill:url(#linearGradient36)"
       transform="matrix(0.60000551,0,0,0.79998737,-11.606437,14.997955)">
      <path
         d="m 32.677094,18.752828 a 4.9999995,4.9999995 0 0 1 -0.125057,1.112594 4.9999995,4.9999995 0 0 1 -0.370004,1.056783 4.9999995,4.9999995 0 0 1 -0.595829,0.947746 4.9999995,4.9999995 0 0 1 -0.791683,0.791683 4.9999995,4.9999995 0 0 1 -0.947746,0.595829 4.9999995,4.9999995 0 0 1 -1.056783,0.370003 4.9999995,4.9999995 0 0 1 -1.112593,0.125057 4.9999995,4.9999995 0 0 1 -1.112594,-0.125057 4.9999995,4.9999995 0 0 1 -1.056783,-0.370003 4.9999995,4.9999995 0 0 1 -0.948262,-0.595829 4.9999995,4.9999995 0 0 1 -0.791683,-0.791683 4.9999995,4.9999995 0 0 1 -0.59583,-0.947746 4.9999995,4.9999995 0 0 1 -0.369486,-1.056783 4.9999995,4.9999995 0 0 1 -0.125574,-1.112594 v 25.000025 h 9.999907 z"
         style="fill:url(#linearGradient33);fill-opacity:1;stroke:#00b227;stroke-width:0;stroke-linecap:round;stroke-linejoin:round;paint-order:stroke markers fill"
         id="path32" />
      <path
         d="m 27.677399,13.752617 a 4.9999995,4.9999995 0 0 0 -1.112594,0.125573 4.9999995,4.9999995 0 0 0 -1.056783,0.369487 4.9999995,4.9999995 0 0 0 -0.948262,0.595829 4.9999995,4.9999995 0 0 0 -0.791683,0.791683 4.9999995,4.9999995 0 0 0 -0.59583,0.948263 4.9999995,4.9999995 0 0 0 -0.369486,1.056783 4.9999995,4.9999995 0 0 0 -0.125574,1.112593 4.9999995,4.9999995 0 0 0 0.125574,1.112594 4.9999995,4.9999995 0 0 0 0.369486,1.056783 4.9999995,4.9999995 0 0 0 0.59583,0.947746 4.9999995,4.9999995 0 0 0 0.791683,0.791683 4.9999995,4.9999995 0 0 0 0.948262,0.595829 4.9999995,4.9999995 0 0 0 1.056783,0.370003 4.9999995,4.9999995 0 0 0 1.112594,0.125057 4.9999995,4.9999995 0 0 0 1.112593,-0.125057 4.9999995,4.9999995 0 0 0 1.056783,-0.370003 4.9999995,4.9999995 0 0 0 0.947746,-0.595829 4.9999995,4.9999995 0 0 0 0.791683,-0.791683 4.9999995,4.9999995 0 0 0 0.595829,-0.947746 4.9999995,4.9999995 0 0 0 0.370004,-1.056783 4.9999995,4.9999995 0 0 0 0.125057,-1.112594 4.9999995,4.9999995 0 0 0 -0.01395,-0.37362 4.9999995,4.9999995 0 0 0 -0.04186,-0.371554 4.9999995,4.9999995 0 0 0 -0.06925,-0.367419 4.9999995,4.9999995 0 0 0 -0.09715,-0.361219 4.9999995,4.9999995 0 0 0 -0.123507,-0.35295 4.9999995,4.9999995 0 0 0 -0.149345,-0.342614 4.9999995,4.9999995 0 0 0 -0.174666,-0.330729 4.9999995,4.9999995 0 0 0 -0.198954,-0.316777 4.9999995,4.9999995 0 0 0 -0.222209,-0.300757 4.9999995,4.9999995 0 0 0 -0.243913,-0.283187 4.9999995,4.9999995 0 0 0 -0.264066,-0.264583 4.9999995,4.9999995 0 0 0 -0.283704,-0.243913 4.9999995,4.9999995 0 0 0 -0.300757,-0.222208 4.9999995,4.9999995 0 0 0 -0.316776,-0.198955 4.9999995,4.9999995 0 0 0 -0.330213,-0.174666 4.9999995,4.9999995 0 0 0 -0.343131,-0.149345 4.9999995,4.9999995 0 0 0 -0.352433,-0.123507 4.9999995,4.9999995 0 0 0 -0.361219,-0.09663 4.9999995,4.9999995 0 0 0 -0.367419,-0.06976 4.9999995,4.9999995 0 0 0 -0.371554,-0.04186 4.9999995,4.9999995 0 0 0 -0.37362,-0.01395 z"
         style="fill:url(#linearGradient34);fill-opacity:1;stroke:url(#linearGradient35);stroke-width:0;stroke-linecap:round;stroke-linejoin:round;paint-order:stroke markers fill"
         id="path33" />
    </g>
  </g>
</svg>
