{"asset":{"version":"2.0","generator":"Blockbench 5.0.2 glTF exporter"},"scenes":[{"nodes":[0,1,2,3,4,5,6],"name":"blockbench_export"}],"scene":0,"nodes":[{"translation":[0,0.109375,0],"name":"cuboid","mesh":0},{"rotation":[0,0,0.7071067811865475,0.7071067811865476],"translation":[0.03125,0.265625,0],"name":"cylinder","mesh":1},{"translation":[0,0.225,0.190625],"name":"cuboid","mesh":2},{"translation":[0,0.225,-0.190625],"name":"cuboid","mesh":3},{"translation":[0.190625,0.225,0],"name":"cuboid","mesh":4},{"translation":[-0.190625,0.225,0],"name":"cuboid","mesh":5},{"translation":[0,0.225,0.2015625],"name":"cuboid","mesh":6}],"bufferViews":[{"buffer":0,"byteOffset":0,"byteLength":288,"target":34962,"byteStride":12},{"buffer":0,"byteOffset":288,"byteLength":288,"target":34962,"byteStride":12},{"buffer":0,"byteOffset":576,"byteLength":192,"target":34962,"byteStride":8},{"buffer":0,"byteOffset":768,"byteLength":72,"target":34963},{"buffer":0,"byteOffset":840,"byteLength":840,"target":34962,"byteStride":12},{"buffer":0,"byteOffset":1680,"byteLength":840,"target":34962,"byteStride":12},{"buffer":0,"byteOffset":2520,"byteLength":560,"target":34962,"byteStride":8},{"buffer":0,"byteOffset":3080,"byteLength":168,"target":34963},{"buffer":0,"byteOffset":3248,"byteLength":288,"target":34962,"byteStride":12},{"buffer":0,"byteOffset":3536,"byteLength":288,"target":34962,"byteStride":12},{"buffer":0,"byteOffset":3824,"byteLength":192,"target":34962,"byteStride":8},{"buffer":0,"byteOffset":4016,"byteLength":72,"target":34963},{"buffer":0,"byteOffset":4088,"byteLength":288,"target":34962,"byteStride":12},{"buffer":0,"byteOffset":4376,"byteLength":288,"target":34962,"byteStride":12},{"buffer":0,"byteOffset":4664,"byteLength":192,"target":34962,"byteStride":8},{"buffer":0,"byteOffset":4856,"byteLength":72,"target":34963},{"buffer":0,"byteOffset":4928,"byteLength":288,"target":34962,"byteStride":12},{"buffer":0,"byteOffset":5216,"byteLength":288,"target":34962,"byteStride":12},{"buffer":0,"byteOffset":5504,"byteLength":192,"target":34962,"byteStride":8},{"buffer":0,"byteOffset":5696,"byteLength":72,"target":34963},{"buffer":0,"byteOffset":5768,"byteLength":288,"target":34962,"byteStride":12},{"buffer":0,"byteOffset":6056,"byteLength":288,"target":34962,"byteStride":12},{"buffer":0,"byteOffset":6344,"byteLength":192,"target":34962,"byteStride":8},{"buffer":0,"byteOffset":6536,"byteLength":72,"target":34963},{"buffer":0,"byteOffset":6608,"byteLength":288,"target":34962,"byteStride":12},{"buffer":0,"byteOffset":6896,"byteLength":288,"target":34962,"byteStride":12},{"buffer":0,"byteOffset":7184,"byteLength":192,"target":34962,"byteStride":8},{"buffer":0,"byteOffset":7376,"byteLength":72,"target":34963}],"buffers":[{"byteLength":7448,"uri":"data:application/octet-stream;base64,"}],"accessors":[{"bufferView":0,"componentType":5126,"count":24,"max":[0.1875,0.15625,0.1875],"min":[-0.1875,-0.09375,-0.1875],"type":"VEC3"},{"bufferView":1,"componentType":5126,"count":24,"max":[1,1,1],"min":[-1,-1,-1],"type":"VEC3"},{"bufferView":2,"componentType":5126,"count":24,"max":[0.59375,0.5625],"min":[0,0],"type":"VEC2"},{"bufferView":3,"componentType":5123,"count":36,"max":[23],"min":[0],"type":"SCALAR"},{"bufferView":4,"componentType":5126,"count":70,"max":[0.1875,0.21875,0.1875],"min":[-0.0033656249288469553,-0.15625,-0.1875],"type":"VEC3"},{"bufferView":5,"componentType":5126,"count":70,"max":[1,1,1],"min":[0,-1,-1],"type":"VEC3"},{"bufferView":6,"componentType":5126,"count":70,"max":[0.6478937268257141,0.75],"min":[0.22151875495910645,0],"type":"VEC2"},{"bufferView":7,"componentType":5123,"count":84,"max":[69],"min":[0],"type":"SCALAR"},{"bufferView":8,"componentType":5126,"count":24,"max":[0.1875,0.0625,0.0031250000465661287],"min":[-0.1875,0,-0.0031250000465661287],"type":"VEC3"},{"bufferView":9,"componentType":5126,"count":24,"max":[1,1,1],"min":[-1,-1,-1],"type":"VEC3"},{"bufferView":10,"componentType":5126,"count":24,"max":[0.78125,0.6875],"min":[0,0.15625],"type":"VEC2"},{"bufferView":11,"componentType":5123,"count":36,"max":[23],"min":[0],"type":"SCALAR"},{"bufferView":12,"componentType":5126,"count":24,"max":[0.1875,0.0625,0.0031250000465661287],"min":[-0.1875,0,-0.0031250000465661287],"type":"VEC3"},{"bufferView":13,"componentType":5126,"count":24,"max":[1,1,1],"min":[-1,-1,-1],"type":"VEC3"},{"bufferView":14,"componentType":5126,"count":24,"max":[0.78125,0.8125],"min":[0.3125,0.28125],"type":"VEC2"},{"bufferView":15,"componentType":5123,"count":36,"max":[23],"min":[0],"type":"SCALAR"},{"bufferView":16,"componentType":5126,"count":24,"max":[0.0031250000465661287,0.0625,0.19374999403953552],"min":[-0.0031250000465661287,0,-0.19374999403953552],"type":"VEC3"},{"bufferView":17,"componentType":5126,"count":24,"max":[1,1,1],"min":[-1,-1,-1],"type":"VEC3"},{"bufferView":18,"componentType":5126,"count":24,"max":[0.8125,0.84375],"min":[0,0],"type":"VEC2"},{"bufferView":19,"componentType":5123,"count":36,"max":[23],"min":[0],"type":"SCALAR"},{"bufferView":20,"componentType":5126,"count":24,"max":[0.0031250000465661287,0.0625,0.19374999403953552],"min":[-0.0031250000465661287,0,-0.19374999403953552],"type":"VEC3"},{"bufferView":21,"componentType":5126,"count":24,"max":[1,1,1],"min":[-1,-1,-1],"type":"VEC3"},{"bufferView":22,"componentType":5126,"count":24,"max":[0.875,0.84375],"min":[0.125,0.53125],"type":"VEC2"},{"bufferView":23,"componentType":5123,"count":36,"max":[23],"min":[0],"type":"SCALAR"},{"bufferView":24,"componentType":5126,"count":24,"max":[0.015625,0.0625,0.0078125],"min":[-0.015625,0,-0.0078125],"type":"VEC3"},{"bufferView":25,"componentType":5126,"count":24,"max":[1,1,1],"min":[-1,-1,-1],"type":"VEC3"},{"bufferView":26,"componentType":5126,"count":24,"max":[0.5,0.78125],"min":[0.1875,0.53125],"type":"VEC2"},{"bufferView":27,"componentType":5123,"count":36,"max":[23],"min":[0],"type":"SCALAR"}],"materials":[{"pbrMetallicRoughness":{"metallicFactor":0,"roughnessFactor":1,"baseColorTexture":{"index":0}},"alphaMode":"MASK","alphaCutoff":0.05,"doubleSided":true}],"textures":[{"sampler":0,"source":0,"name":"Chest Texture"}],"samplers":[{"magFilter":9728,"minFilter":9728,"wrapS":33071,"wrapT":33071}],"images":[{"mimeType":"image/png","uri":"data:image/png;base64,"}],"meshes":[{"primitives":[{"mode":4,"attributes":{"POSITION":0,"NORMAL":1,"TEXCOORD_0":2},"indices":3,"material":0}]},{"primitives":[{"mode":4,"attributes":{"POSITION":4,"NORMAL":5,"TEXCOORD_0":6},"indices":7,"material":0}]},{"primitives":[{"mode":4,"attributes":{"POSITION":8,"NORMAL":9,"TEXCOORD_0":10},"indices":11,"material":0}]},{"primitives":[{"mode":4,"attributes":{"POSITION":12,"NORMAL":13,"TEXCOORD_0":14},"indices":15,"material":0}]},{"primitives":[{"mode":4,"attributes":{"POSITION":16,"NORMAL":17,"TEXCOORD_0":18},"indices":19,"material":0}]},{"primitives":[{"mode":4,"attributes":{"POSITION":20,"NORMAL":21,"TEXCOORD_0":22},"indices":23,"material":0}]},{"primitives":[{"mode":4,"attributes":{"POSITION":24,"NORMAL":25,"TEXCOORD_0":26},"indices":27,"material":0}]}]}