# Made in Blockbench 5.0.2
mtllib Chest.mtl

o cuboid
v 0.1875 0.265625 0.1875
v 0.1875 0.265625 -0.1875
v 0.1875 0.015625 0.1875
v 0.1875 0.015625 -0.1875
v -0.1875 0.265625 0.1875
v -0.1875 0.265625 -0.1875
v -0.1875 0.015625 0.1875
v -0.1875 0.015625 -0.1875
vt 0.40625 0.78125
vt 0.21875 0.78125
vt 0.21875 0.65625
vt 0.40625 0.65625
vt 0.40625 0.5
vt 0.40625 0.625
vt 0.21875 0.625
vt 0.21875 0.5
vt 0 0.8125
vt 0.1875 0.8125
vt 0.1875 1
vt 0 1
vt 0.1875 0.59375
vt 0.1875 0.78125
vt 0 0.78125
vt 0 0.59375
vt 0.59375 0.875
vt 0.59375 1
vt 0.40625 1
vt 0.40625 0.875
vt 0.1875 0.5625
vt 0 0.5625
vt 0 0.4375
vt 0.1875 0.4375
vn 1 0 0
vn -1 0 0
vn 0 1 0
vn 0 -1 0
vn 0 0 1
vn 0 0 -1
usemtl m_094c281a-060d-9ca5-f184-8200c971cd12
f 2/1/1 1/2/1 3/3/1 4/4/1
f 7/5/2 5/6/2 6/7/2 8/8/2
f 5/9/3 1/10/3 2/11/3 6/12/3
f 4/13/4 3/14/4 7/15/4 8/16/4
f 3/17/5 1/18/5 5/19/5 7/20/5
f 6/21/6 2/22/6 4/23/6 8/24/6
o cylinder
v 0.1875 0.26562499999999994 0
v -0.1875 0.26562500000000006 0
v 0.1875 0.31586547358083544 0.1875
v -0.1875 0.31586547358083555 0.1875
v 0.18750000000000003 0.40288452641916445 0.1372595264191645
v -0.18749999999999997 0.4028845264191645 0.1372595264191645
v 0.18750000000000006 0.453125 0.0502404735808355
v -0.18749999999999994 0.45312500000000006 0.0502404735808355
v 0.18750000000000006 0.453125 -0.05024047358083552
v -0.18749999999999994 0.45312500000000006 -0.05024047358083552
v 0.18750000000000003 0.4028845264191645 -0.13725952641916447
v -0.18749999999999997 0.40288452641916456 -0.13725952641916447
v 0.1875 0.3158654735808355 -0.18749999999999997
v -0.1875 0.3158654735808356 -0.18749999999999997
v 0.1875 0.26538452641916455 -0.1875
v -0.1875 0.2622595264191646 -0.1875
v 0.1875 0.2653845264191645 0.1875
v -0.1875 0.26225952641916456 0.1875
vt 0.521815625 0.59988125
vt 0.478303125 0.625
vt 0.45318437500000003 0.53125
vt 0.25390625 0.28125
vt 0.30414375 0.28125
vt 0.30414375 0.46875
vt 0.25390625 0.46875
vt 0.479084375 0.65625
vt 0.522596875 0.68136875
vt 0.453965625 0.75
vt 0.546934375 0.55636875
vt 0.521815625 0.59988125
vt 0.45318437500000003 0.53125
vt 0.22151875 0.8125
vt 0.27175625000000003 0.8125
vt 0.27175625000000003 1
vt 0.22151875 1
vt 0.522596875 0.68136875
vt 0.547715625 0.72488125
vt 0.453965625 0.75
vt 0.546934375 0.50613125
vt 0.546934375 0.55636875
vt 0.45318437500000003 0.53125
vt 0.27175625000000003 0.8125
vt 0.32199374999999997 0.8125
vt 0.32199374999999997 1
vt 0.27175625000000003 1
vt 0.547715625 0.72488125
vt 0.547715625 0.77511875
vt 0.453965625 0.75
vt 0.521815625 0.46261874999999997
vt 0.546934375 0.50613125
vt 0.45318437500000003 0.53125
vt 0.32199374999999997 0.8125
vt 0.37223125 0.8125
vt 0.37223125 1
vt 0.32199374999999997 1
vt 0.547715625 0.77511875
vt 0.522596875 0.81863125
vt 0.453965625 0.75
vt 0.478303125 0.4375
vt 0.521815625 0.46261874999999997
vt 0.45318437500000003 0.53125
vt 0.57085625 0.25
vt 0.62109375 0.25
vt 0.62109375 0.4375
vt 0.57085625 0.4375
vt 0.522596875 0.81863125
vt 0.479084375 0.84375
vt 0.453965625 0.75
vt 0.453065625 0.4375
vt 0.478303125 0.4375
vt 0.453184375 0.53125
vt 0.62109375 0.25
vt 0.64633125 0.25
vt 0.6478937499999999 0.4375
vt 0.62109375 0.4375
vt 0.479084375 0.84375
vt 0.452284375 0.84375
vt 0.453965625 0.75
vt 0.478303125 0.625
vt 0.453065625 0.625
vt 0.45318437500000003 0.53125
vt 0.22866875 0.28125
vt 0.25390625 0.28125
vt 0.25390625 0.46875
vt 0.22710625 0.46875
vt 0.452284375 0.65625
vt 0.479084375 0.65625
vt 0.453965625 0.75
vn 1 -2.220446049250313e-16 0
vn 1.1102230246251568e-16 0.5000000000000001 0.8660254037844388
vn -1 2.220446049250313e-16 0
vn 1 -2.220446049250313e-16 0
vn 1.922962686383564e-16 0.8660254037844387 0.5000000000000001
vn -1 2.220446049250313e-16 0
vn 1 -2.220446049250313e-16 0
vn 2.220446049250313e-16 1 0
vn -1 2.220446049250313e-16 0
vn 1 -2.220446049250313e-16 0
vn 1.9229626863835638e-16 0.8660254037844386 -0.5000000000000001
vn -1 2.220446049250313e-16 0
vn 1 -2.220446049250313e-16 0
vn 1.1102230246251568e-16 0.5000000000000001 -0.8660254037844386
vn -1 2.220446049250313e-16 0
vn 1 -2.220446049250313e-16 0
vn -4.581856650248956e-18 5.498227980298888e-16 -1
vn -1 2.220446049250313e-16 0
vn 1 -2.220446049250313e-16 0
vn 0 0 1
vn -1 2.220446049250313e-16 0
usemtl m_094c281a-060d-9ca5-f184-8200c971cd12
f 13/25/7 11/26/7 9/27/7
f 11/28/8 13/29/8 14/30/8 12/31/8
f 12/32/9 14/33/9 10/34/9
f 15/35/10 13/36/10 9/37/10
f 13/38/11 15/39/11 16/40/11 14/41/11
f 14/42/12 16/43/12 10/44/12
f 17/45/13 15/46/13 9/47/13
f 15/48/14 17/49/14 18/50/14 16/51/14
f 16/52/15 18/53/15 10/54/15
f 19/55/16 17/56/16 9/57/16
f 17/58/17 19/59/17 20/60/17 18/61/17
f 18/62/18 20/63/18 10/64/18
f 21/65/19 19/66/19 9/67/19
f 19/68/20 21/69/20 22/70/20 20/71/20
f 20/72/21 22/73/21 10/74/21
f 23/75/22 21/76/22 9/77/22
f 21/78/23 23/79/23 24/80/23 22/81/23
f 22/82/24 24/83/24 10/84/24
f 11/85/25 25/86/25 9/87/25
f 25/88/26 11/89/26 12/90/26 26/91/26
f 26/92/27 12/93/27 10/94/27
o cuboid
v 0.1875 0.2875000000000001 0.19375000000000003
v 0.1875 0.2875000000000001 0.18750000000000006
v 0.1875 0.2250000000000001 0.19375000000000003
v 0.1875 0.2250000000000001 0.18750000000000006
v -0.1875 0.2875000000000001 0.19375000000000003
v -0.1875 0.2875000000000001 0.18750000000000006
v -0.1875 0.2250000000000001 0.19375000000000003
v -0.1875 0.2250000000000001 0.18750000000000006
vt 0.78125 0.40625
vt 0.75 0.40625
vt 0.75 0.375
vt 0.78125 0.375
vt 0.78125 0.3125
vt 0.78125 0.34375
vt 0.75 0.34375
vt 0.75 0.3125
vt 0.5625 0.625
vt 0.75 0.625
vt 0.75 0.65625
vt 0.5625 0.65625
vt 0.1875 0.375
vt 0.1875 0.40625
vt 0 0.40625
vt 0 0.375
vt 0.78125 0.8125
vt 0.78125 0.84375
vt 0.59375 0.84375
vt 0.59375 0.8125
vt 0.78125 0.78125
vt 0.59375 0.78125
vt 0.59375 0.75
vt 0.78125 0.75
vn 1 0 0
vn -1 0 0
vn 0 1 0
vn 0 -1 0
vn 0 0 1
vn 0 0 -1
usemtl m_094c281a-060d-9ca5-f184-8200c971cd12
f 28/95/28 27/96/28 29/97/28 30/98/28
f 33/99/29 31/100/29 32/101/29 34/102/29
f 31/103/30 27/104/30 28/105/30 32/106/30
f 30/107/31 29/108/31 33/109/31 34/110/31
f 29/111/32 27/112/32 31/113/32 33/114/32
f 32/115/33 28/116/33 30/117/33 34/118/33
o cuboid
v 0.1875 0.2875000000000001 -0.1875
v 0.1875 0.2875000000000001 -0.19374999999999998
v 0.1875 0.2250000000000001 -0.1875
v 0.1875 0.2250000000000001 -0.19374999999999998
v -0.1875 0.2875000000000001 -0.1875
v -0.1875 0.2875000000000001 -0.19374999999999998
v -0.1875 0.2250000000000001 -0.1875
v -0.1875 0.2250000000000001 -0.19374999999999998
vt 0.78125 0.28125
vt 0.75 0.28125
vt 0.75 0.25
vt 0.78125 0.25
vt 0.34375 0.1875
vt 0.34375 0.21875
vt 0.3125 0.21875
vt 0.3125 0.1875
vt 0.59375 0.6875
vt 0.78125 0.6875
vt 0.78125 0.71875
vt 0.59375 0.71875
vt 0.53125 0.375
vt 0.53125 0.40625
vt 0.34375 0.40625
vt 0.34375 0.375
vt 0.78125 0.5625
vt 0.78125 0.59375
vt 0.59375 0.59375
vt 0.59375 0.5625
vt 0.78125 0.53125
vt 0.59375 0.53125
vt 0.59375 0.5
vt 0.78125 0.5
vn 1 0 0
vn -1 0 0
vn 0 1 0
vn 0 -1 0
vn 0 0 1
vn 0 0 -1
usemtl m_094c281a-060d-9ca5-f184-8200c971cd12
f 36/119/34 35/120/34 37/121/34 38/122/34
f 41/123/35 39/124/35 40/125/35 42/126/35
f 39/127/36 35/128/36 36/129/36 40/130/36
f 38/131/37 37/132/37 41/133/37 42/134/37
f 37/135/38 35/136/38 39/137/38 41/138/38
f 40/139/39 36/140/39 38/141/39 42/142/39
o cuboid
v 0.19374999999999998 0.2875000000000001 0.19375
v 0.19374999999999998 0.2875000000000001 -0.19375
v 0.19374999999999998 0.2250000000000001 0.19375
v 0.19374999999999998 0.2250000000000001 -0.19375
v 0.1875 0.2875000000000001 0.19375
v 0.1875 0.2875000000000001 -0.19375
v 0.1875 0.2250000000000001 0.19375
v 0.1875 0.2250000000000001 -0.19375
vt 0.8125 1
vt 0.625 1
vt 0.625 0.96875
vt 0.8125 0.96875
vt 0.8125 0.90625
vt 0.8125 0.9375
vt 0.625 0.9375
vt 0.625 0.90625
vt 0 0.15625
vt 0.03125 0.15625
vt 0.03125 0.34375
vt 0 0.34375
vt 0.09375 0.15625
vt 0.09375 0.34375
vt 0.0625 0.34375
vt 0.0625 0.15625
vt 0.8125 0.625
vt 0.8125 0.65625
vt 0.78125 0.65625
vt 0.78125 0.625
vt 0.40625 0.21875
vt 0.375 0.21875
vt 0.375 0.1875
vt 0.40625 0.1875
vn 1 0 0
vn -1 0 0
vn 0 1 0
vn 0 -1 0
vn 0 0 1
vn 0 0 -1
usemtl m_094c281a-060d-9ca5-f184-8200c971cd12
f 44/143/40 43/144/40 45/145/40 46/146/40
f 49/147/41 47/148/41 48/149/41 50/150/41
f 47/151/42 43/152/42 44/153/42 48/154/42
f 46/155/43 45/156/43 49/157/43 50/158/43
f 45/159/44 43/160/44 47/161/44 49/162/44
f 48/163/45 44/164/45 46/165/45 50/166/45
o cuboid
v -0.1875 0.2875000000000001 0.19375
v -0.1875 0.2875000000000001 -0.19375
v -0.1875 0.2250000000000001 0.19375
v -0.1875 0.2250000000000001 -0.19375
v -0.19374999999999998 0.2875000000000001 0.19375
v -0.19374999999999998 0.2875000000000001 -0.19375
v -0.19374999999999998 0.2250000000000001 0.19375
v -0.19374999999999998 0.2250000000000001 -0.19375
vt 0.53125 0.34375
vt 0.34375 0.34375
vt 0.34375 0.3125
vt 0.53125 0.3125
vt 0.875 0.4375
vt 0.875 0.46875
vt 0.6875 0.46875
vt 0.6875 0.4375
vt 0.125 0.15625
vt 0.15625 0.15625
vt 0.15625 0.34375
vt 0.125 0.34375
vt 0.71875 0.21875
vt 0.71875 0.40625
vt 0.6875 0.40625
vt 0.6875 0.21875
vt 0.46875 0.1875
vt 0.46875 0.21875
vt 0.4375 0.21875
vt 0.4375 0.1875
vt 0.53125 0.21875
vt 0.5 0.21875
vt 0.5 0.1875
vt 0.53125 0.1875
vn 1 0 0
vn -1 0 0
vn 0 1 0
vn 0 -1 0
vn 0 0 1
vn 0 0 -1
usemtl m_094c281a-060d-9ca5-f184-8200c971cd12
f 52/167/46 51/168/46 53/169/46 54/170/46
f 57/171/47 55/172/47 56/173/47 58/174/47
f 55/175/48 51/176/48 52/177/48 56/178/48
f 54/179/49 53/180/49 57/181/49 58/182/49
f 53/183/50 51/184/50 55/185/50 57/186/50
f 56/187/51 52/188/51 54/189/51 58/190/51
o cuboid
v 0.015625 0.2875 0.20937499999999995
v 0.015625 0.2875 0.19374999999999995
v 0.015625 0.225 0.20937499999999995
v 0.015625 0.225 0.19374999999999995
v -0.015625 0.2875 0.20937499999999995
v -0.015625 0.2875 0.19374999999999995
v -0.015625 0.225 0.20937499999999995
v -0.015625 0.225 0.19374999999999995
vt 0.375 0.46875
vt 0.34375 0.46875
vt 0.34375 0.4375
vt 0.375 0.4375
vt 0.375 0.25
vt 0.375 0.28125
vt 0.34375 0.28125
vt 0.34375 0.25
vt 0.40625 0.25
vt 0.4375 0.25
vt 0.4375 0.28125
vt 0.40625 0.28125
vt 0.5 0.25
vt 0.5 0.28125
vt 0.46875 0.28125
vt 0.46875 0.25
vt 0.21875 0.21875
vt 0.21875 0.25
vt 0.1875 0.25
vt 0.1875 0.21875
vt 0.28125 0.25
vt 0.25 0.25
vt 0.25 0.21875
vt 0.28125 0.21875
vn 1 0 0
vn -1 0 0
vn 0 1 0
vn 0 -1 0
vn 0 0 1
vn 0 0 -1
usemtl m_094c281a-060d-9ca5-f184-8200c971cd12
f 60/191/52 59/192/52 61/193/52 62/194/52
f 65/195/53 63/196/53 64/197/53 66/198/53
f 63/199/54 59/200/54 60/201/54 64/202/54
f 62/203/55 61/204/55 65/205/55 66/206/55
f 61/207/56 59/208/56 63/209/56 65/210/56
f 64/211/57 60/212/57 62/213/57 66/214/57