# Made in Blockbench 5.0.2
mtllib Pickaxe.mtl

o cuboid
v -0.3125 0.0625 0.21875
v -0.3125 0.0625 -0.062499999999999986
v -0.3125 0 0.21875
v -0.3125 0 -0.06562499999999999
v -0.4375 0.0625 0.21875
v -0.4375 0.0625 -0.15625
v -0.4375 0 0.21875
v -0.4375 0 -0.15625
vt 0.71875 0.9375
vt 0.53125 0.9375
vt 0.53125 0.90625
vt 0.71875 0.90625
vt 0.71875 0.84375
vt 0.71875 0.875
vt 0.53125 0.875
vt 0.53125 0.84375
vt 0.4375 0.8125
vt 0.5 0.8125
vt 0.5 1
vt 0.4375 1
vt 0.5 0.59375
vt 0.5 0.78125
vt 0.4375 0.78125
vt 0.4375 0.59375
vt 0.65625 0.375
vt 0.65625 0.40625
vt 0.59375 0.40625
vt 0.59375 0.375
vt 0.0625 0.375
vt 0 0.375
vt 0 0.34375
vt 0.0625 0.34375
vn 1 0 0
vn -1 0 0
vn 0 1 0
vn 0 -1 0
vn 0 0 1
vn 0.5995205752330738 0.03996803834887161 -0.7993607669774316
usemtl m_93739844-30fe-29a7-1c24-687f59318006
f 2/1/1 1/2/1 3/3/1 4/4/1
f 7/5/2 5/6/2 6/7/2 8/8/2
f 5/9/3 1/10/3 2/11/3 6/12/3
f 4/13/4 3/14/4 7/15/4 8/16/4
f 3/17/5 1/18/5 5/19/5 7/20/5
f 6/21/6 2/22/6 4/23/6 8/24/6
o cuboid
v 0.21875 0.0625 -0.3125
v 0.21875 0.0625 -0.4375
v 0.21875 0 -0.3125
v 0.21875 0 -0.4375
v -0.06875000000000003 0.0625 -0.3125
v -0.15625 0.0625 -0.4375
v -0.0671875 0 -0.3125
v -0.15625 0 -0.4375
vt 0.15625 0.375
vt 0.09375 0.375
vt 0.09375 0.34375
vt 0.15625 0.34375
vt 0.6875 0.71875
vt 0.6875 0.75
vt 0.625 0.75
vt 0.625 0.71875
vt 0.4375 0.5
vt 0.625 0.5
vt 0.625 0.5625
vt 0.4375 0.5625
vt 0.1875 0.46875
vt 0.1875 0.53125
vt 0 0.53125
vt 0 0.46875
vt 0.71875 0.78125
vt 0.71875 0.8125
vt 0.53125 0.8125
vt 0.53125 0.78125
vt 0.40625 0.46875
vt 0.21875 0.46875
vt 0.21875 0.4375
vt 0.40625 0.4375
vn 1 0 0
vn -0.8190601557786017 -0.020476503894465516 0.5733421090450209
vn 0 1 0
vn 0 -1 0
vn 0 0 1
vn 0 0 -1
usemtl m_93739844-30fe-29a7-1c24-687f59318006
f 10/25/7 9/26/7 11/27/7 12/28/7
f 15/29/8 13/30/8 14/31/8 16/32/8
f 13/33/9 9/34/9 10/35/9 14/36/9
f 12/37/10 11/38/10 15/39/10 16/40/10
f 11/41/11 9/42/11 13/43/11 15/44/11
f 14/45/12 10/46/12 12/47/12 16/48/12
o cuboid
v -0.06750946993853127 0.0625 -0.31285218241315027
v -0.15589781758684973 0.0625 -0.4371780300614687
v -0.06750946993853127 0 -0.31285218241315027
v -0.1558978175868497 0 -0.43561553006146875
v -0.31285218241315027 0.0625 -0.06438446993853125
v -0.43874053006146874 0.0625 -0.15277281758684969
v -0.31285218241315027 0 -0.06438446993853125
v -0.43874053006146874 0 -0.15277281758684969
vt 0.46875 0.40625
vt 0.40625 0.40625
vt 0.40625 0.375
vt 0.46875 0.375
vt 0.5625 0.375
vt 0.5625 0.40625
vt 0.5 0.40625
vt 0.5 0.375
vt 0 0.5625
vt 0.1875 0.5625
vt 0.1875 0.625
vt 0 0.625
vt 0.40625 0.5625
vt 0.40625 0.625
vt 0.21875 0.625
vt 0.21875 0.5625
vt 0.40625 0.5
vt 0.40625 0.53125
vt 0.21875 0.53125
vt 0.21875 0.5
vt 0.71875 1
vt 0.53125 1
vt 0.53125 0.96875
vt 0.71875 0.96875
vn 0.8150207829464714 0 -0.5794317245071423
vn -0.5746245723176434 0 0.8184171313509789
vn 0 1 0
vn 0 -1 0
vn 0.7115673446959798 0 0.7026179003998637
vn -0.7089416829823804 -0.0176261703201864 -0.7050468128074574
usemtl m_93739844-30fe-29a7-1c24-687f59318006
f 18/49/13 17/50/13 19/51/13 20/52/13
f 23/53/14 21/54/14 22/55/14 24/56/14
f 21/57/15 17/58/15 18/59/15 22/60/15
f 20/61/16 19/62/16 23/63/16 24/64/16
f 19/65/17 17/66/17 21/67/17 23/68/17
f 22/69/18 18/70/18 20/71/18 24/72/18
o cuboid
v 0.4375 0.0625 0.4375
v 0.4375 0 0.4375
v 0.3125 0.0625 0.4375
v 0.4375 0.0625 0.3125
v 0.3125 0 0.4375
v 0.4375 0 0.3125
vt 0.1875 0.4375
vt 0.125 0.4375
vt 0.125 0.40625
vt 0.1875 0.40625
vt 0.625 0.4375
vt 0.625 0.46875
vt 0.5625 0.46875
vt 0.5625 0.4375
vt 0.53125 0.6875
vt 0.59375 0.6875
vt 0.53125 0.75
vt 0.59375 0.65625
vt 0.53125 0.65625
vt 0.53125 0.59375
vt 0.28125 0.375
vt 0.28125 0.40625
vt 0.21875 0.40625
vt 0.21875 0.375
vn 1 0 0
vn -0.7071067811865476 0 -0.7071067811865476
vn 0 1 0
vn 0 -1 0
vn 0 0 1
usemtl m_93739844-30fe-29a7-1c24-687f59318006
f 28/73/19 25/74/19 26/75/19 30/76/19
f 29/77/20 27/78/20 28/79/20 30/80/20
f 27/81/21 25/82/21 28/83/21
f 26/84/22 29/85/22 30/86/22
f 26/87/23 25/88/23 27/89/23 29/90/23
o cuboid
v 0.31115392738255454 0.0625 0.43890649756668354
v 0.4357814975666835 0.0625 0.3142789273825546
v 0.31115392738255454 0 0.43890649756668354
v 0.4357814975666835 0 0.3142789273825546
v -0.2545314975666835 0.0625 -0.12677892738255458
v -0.12990392738255446 0.0625 -0.25140649756668354
v -0.2545314975666835 0 -0.12677892738255458
v -0.12990392738255446 0 -0.25140649756668354
vt 0.53125 0.46875
vt 0.4375 0.46875
vt 0.4375 0.4375
vt 0.53125 0.4375
vt 0.09375 0.40625
vt 0.09375 0.4375
vt 0 0.4375
vt 0 0.40625
vt 0 0.90625
vt 0.40625 0.90625
vt 0.40625 1
vt 0 1
vt 0.40625 0.78125
vt 0.40625 0.875
vt 0 0.875
vt 0 0.78125
vt 0.40625 0.71875
vt 0.40625 0.75
vt 0 0.75
vt 0 0.71875
vt 0.40625 0.6875
vt 0 0.6875
vt 0 0.65625
vt 0.40625 0.65625
vn 0.7071067811865475 0 0.7071067811865476
vn -0.7071067811865475 0 -0.7071067811865476
vn 0 1 0
vn 0 -1 0
vn -0.7071067811865476 0 0.7071067811865475
vn 0.7071067811865476 0 -0.7071067811865475
usemtl m_93739844-30fe-29a7-1c24-687f59318006
f 32/91/24 31/92/24 33/93/24 34/94/24
f 37/95/25 35/96/25 36/97/25 38/98/25
f 35/99/26 31/100/26 32/101/26 36/102/26
f 34/103/27 33/104/27 37/105/27 38/106/27
f 33/107/28 31/108/28 35/109/28 37/110/28
f 36/111/29 32/112/29 34/113/29 38/114/29